<svg width="23" height="18" viewBox="0 0 23 18" fill="none" xmlns="http://www.w3.org/2000/svg">
<path d="M17.543 14.5527H7.71779C6.99323 14.5528 6.37432 14.1554 6.25308 13.6122L3.64154 1.93981C3.51987 1.39692 2.90108 0.999883 2.17683 1H1.20233" stroke="#2D5194" stroke-width="1.5" stroke-linecap="round" stroke-linejoin="round"/>
<path d="M15.6862 16.2471C15.4811 16.2471 15.3149 16.3735 15.3149 16.5295C15.3149 16.6854 15.4811 16.8119 15.6862 16.8119C15.8913 16.8119 16.0576 16.6854 16.0576 16.5295C16.0576 16.3735 15.8913 16.2471 15.6862 16.2471" stroke="#2D5194" stroke-width="1.5" stroke-linecap="round" stroke-linejoin="round"/>
<path d="M8.25826 16.2471C8.05315 16.2471 7.88688 16.3735 7.88688 16.5295C7.88688 16.6854 8.05315 16.8119 8.25826 16.8119C8.46337 16.8119 8.62964 16.6854 8.62964 16.5295C8.62964 16.3735 8.46337 16.2471 8.25826 16.2471" stroke="#2D5194" stroke-width="1.5" stroke-linecap="round" stroke-linejoin="round"/>
<path d="M5.70549 11.1638H17.6599C19.0229 11.1637 20.211 10.4583 20.5418 9.45287L21.9778 5.08515C22.0333 4.91636 21.9834 4.73753 21.8426 4.60042C21.7017 4.4633 21.4856 4.3832 21.2568 4.3833H4.18928" stroke="#2D5194" stroke-width="1.5" stroke-linecap="round" stroke-linejoin="round"/>
</svg>
