<svg id="Layer_1" data-name="Layer 1" xmlns="http://www.w3.org/2000/svg" viewBox="0 0 1000 595"><defs><style>.cls-1{fill:#2d5194;fill-rule:evenodd;}</style></defs><path class="cls-1" d="M1000,.57V586.23H906.54V140.76H841.11V78.45a104.9,104.9,0,0,0,62.31-23.37A74.22,74.22,0,0,0,923.68,2.13V.57Z"/><path class="cls-1" d="M464.17,165.66h-1.56V109.6h1.56A111.86,111.86,0,0,1,540.49,133a87,87,0,0,1,24.91,67V363.49H462.61V305.85h20.24V192.15c0-7.79,0-15.58-3.12-18.7a15.56,15.56,0,0,0-15.58-7.79Z"/><path class="cls-1" d="M440.79,111.14V592.36a108.84,108.84,0,0,1-54.52-21.82,92.24,92.24,0,0,1-23.37-67V199.93a92.24,92.24,0,0,1,23.37-67,86.77,86.77,0,0,1,54.52-21.82Z"/><path class="cls-1" d="M697.82,122.05a50.29,50.29,0,0,1,34.26-10.91,51,51,0,0,1,46.72,18.7,130.07,130.07,0,0,1,12.48,65.43v165.1H711.81V203.06a29.54,29.54,0,0,0-6.33-18.7,15.54,15.54,0,0,0-15.57-7.79V126.72l7.8-4.67Z"/><path class="cls-1" d="M588.76,117.39h84.11V586.22H588.76Z"/><path class="cls-1" d="M565.4,399.3V503.61a87,87,0,0,1-24.91,67A111.86,111.86,0,0,1,464.17,594h-1.56V537.89h1.56a19.82,19.82,0,0,0,14-6.33,65.05,65.05,0,0,0,4.66-20.24V399.16Z"/><path class="cls-1" d="M0,.57H85.67V586.23H0Z"/><path class="cls-1" d="M104.37,67.54V.56H109a154.37,154.37,0,0,1,98.12,24.91,99.16,99.16,0,0,1,31.15,81V249.79a98.56,98.56,0,0,1-31.15,82.55C186.92,351,152.64,358.83,109,358.83h-4.67v-70h7.79A33.83,33.83,0,0,0,137.07,281a49,49,0,0,0,7.78-31.16V106.54a35.65,35.65,0,0,0-7.78-28A25.71,25.71,0,0,0,112.16,67.6Z"/><path class="cls-1" d="M253.89.57H338V83.11H253.89Z"/><path class="cls-1" d="M253.89,117.39H338V586.22H253.89Z"/></svg>